<svg xmlns="http://www.w3.org/2000/svg" width="1024" height="1024" viewBox="0 0 1024 1024">
  <defs>
    <linearGradient id="bg" x1="0" y1="0" x2="0" y2="1"><stop offset="0" stop-color="#43a3ff"/><stop offset="1" stop-color="#0057d4"/></linearGradient>
    <radialGradient id="sheen" cx="0.5" cy="0" r="0.9"><stop offset="0" stop-color="#fff" stop-opacity="0.22"/><stop offset="1" stop-color="#fff" stop-opacity="0"/></radialGradient>
    <linearGradient id="cg" x1="0" y1="0" x2="0" y2="1"><stop offset="0" stop-color="#ffffff"/><stop offset="1" stop-color="#eef3fb"/></linearGradient>
    <pattern id="dots" width="46" height="46" patternUnits="userSpaceOnUse" x="12" y="12"><circle cx="23" cy="23" r="4.5" fill="rgba(255,255,255,0.14)"/></pattern>
    <filter id="icon" x="-20%" y="-20%" width="140%" height="140%"><feDropShadow dx="0" dy="12" stdDeviation="14" flood-color="#000" flood-opacity="0.28"/></filter>
    <filter id="cs" x="-30%" y="-30%" width="160%" height="170%"><feDropShadow dx="0" dy="12" stdDeviation="16" flood-color="#002a73" flood-opacity="0.38"/></filter>
    <clipPath id="sq"><rect x="100" y="100" width="824" height="824" rx="185"/></clipPath>
  </defs>
  <g filter="url(#icon)"><rect x="100" y="100" width="824" height="824" rx="185" fill="url(#bg)"/></g>
  <g clip-path="url(#sq)">
    <rect x="100" y="100" width="824" height="824" fill="url(#dots)"/>
    <rect x="100" y="100" width="824" height="824" fill="url(#sheen)"/>
    <g transform="translate(512 510) scale(0.92) translate(-512 -510)">
      <path d="M322 424 C322 520, 512 500, 512 596" fill="none" stroke="#fff" stroke-width="20" stroke-linecap="round"/>
      <path d="M702 424 C702 520, 512 500, 512 596" fill="none" stroke="#fff" stroke-width="20" stroke-linecap="round"/>
      
  <g filter="url(#cs)"><rect x="182" y="214" width="280" height="210" rx="40" fill="url(#cg)"/></g>
  <circle cx="228" cy="264" r="18" fill="#34c759"/>
  <rect x="262" y="252" width="150" height="24" rx="12" fill="rgba(0,0,0,0.62)"/>
  <rect x="216" y="318" width="212" height="18" rx="9" fill="rgba(0,0,0,0.12)"/>
  <rect x="216" y="358" width="150" height="18" rx="9" fill="rgba(0,0,0,0.12)"/>
      
  <g filter="url(#cs)"><rect x="562" y="214" width="280" height="210" rx="40" fill="url(#cg)"/></g>
  <circle cx="608" cy="264" r="18" fill="#007aff"/>
  <rect x="642" y="252" width="124" height="24" rx="12" fill="rgba(0,0,0,0.62)"/>
  <rect x="596" y="318" width="212" height="18" rx="9" fill="rgba(0,0,0,0.12)"/>
  <rect x="596" y="358" width="150" height="18" rx="9" fill="rgba(0,0,0,0.12)"/>
      
  <g filter="url(#cs)"><rect x="372" y="596" width="280" height="210" rx="40" fill="url(#cg)"/></g>
  <circle cx="418" cy="646" r="18" fill="#ff9500"/>
  <rect x="452" y="634" width="150" height="24" rx="12" fill="rgba(0,0,0,0.62)"/>
  <rect x="406" y="700" width="212" height="18" rx="9" fill="rgba(0,0,0,0.12)"/>
  <rect x="406" y="740" width="150" height="18" rx="9" fill="rgba(0,0,0,0.12)"/>
      <circle cx="512" cy="596" r="22" fill="#fff"/>
      <circle cx="512" cy="596" r="11" fill="#1a7cf5"/>
    </g>
  </g>
  <rect x="101" y="101" width="822" height="822" rx="184" fill="none" stroke="rgba(255,255,255,0.22)" stroke-width="2"/>
</svg>